<svg width="100" height="100" xmlns="http://www.w3.org/2000/svg">

  <path d="M 10 10
           C 10 90, 90 90, 90 10"
        fill="transparent"
        stroke="orange"
  />

  <line x1="10" y1="10" x2="10" y2="90" stroke="grey"/>
  <line x1="90" y1="10" x2="90" y2="90" stroke="grey"/>
  <line x1="10" y1="90" x2="90" y2="90" stroke="grey"/>

  <circle cx="10" cy="50" r="3" fill="blue"/>
  <circle cx="50" cy="90" r="3" fill="blue"/>
  <circle cx="90" cy="50" r="3" fill="blue"/>

  <line x1="10" y1="50" x2="50" y2="90" stroke="green"/>
  <line x1="50" y1="90" x2="90" y2="50" stroke="green"/>

  <circle cx="30" cy="70" r="3" fill="blue"/>
  <circle cx="70" cy="70" r="3" fill="blue"/>

  <line x1="30" y1="70" x2="70" y2="70" stroke="yellow"/>
  <circle cx="50" cy="70" r="3" fill="blue"/>
  <text x="45" y="80" font-size="10" fill="cyan" font-family="arial">t</text>

  <circle cx="10" cy="10" r="3" fill="red"/>
  <text x="14" y="12" font-size="10" fill="white" font-family="arial">M</text>

  <circle cx="90" cy="10" r="3" fill="red"/>
  <text x="73" y="12" font-size="10" fill="white" font-family="arial">x y</text>

  <circle cx="10" cy="90" r="3" fill="red"/>
  <text x="13" y="86" font-size="10" fill="white" font-family="arial">x1 y1</text>

  <circle cx="90" cy="90" r="3" fill="red"/>
  <text x="65" y="86" font-size="10" fill="white" font-family="arial">x2 y2</text>

</svg>

